<?xml version="1.0" encoding="UTF-8"?><svg width="24px" height="24px" stroke-width="1.5" viewBox="0 0 24 24" fill="none" xmlns="http://www.w3.org/2000/svg" color="#ffffff"><path d="M23 10v4" stroke="#ffffff" stroke-width="1.5" stroke-linecap="round" stroke-linejoin="round"></path><path d="M1 16V8a2 2 0 012-2h15a2 2 0 012 2v8a2 2 0 01-2 2H3a2 2 0 01-2-2z" stroke="#ffffff" stroke-width="1.5"></path><path d="M4 14.4V9.6a.6.6 0 01.6-.6h11.8a.6.6 0 01.6.6v4.8a.6.6 0 01-.6.6H4.6a.6.6 0 01-.6-.6z" stroke="#ffffff" stroke-width="1.5"></path></svg>